<svg id="ëÎÓÈ_1" data-name="ëÎÓÈ 1" xmlns="http://www.w3.org/2000/svg" viewBox="0 0 2500 1664"><defs><style>.cls-1{fill:#fff;}.cls-2{fill:#ffe9e9;}.cls-3{fill:#ffb149;}.cls-4{fill:#00ccbe;}.cls-5{fill:#000061;}.cls-6{fill:#ff5776;}</style></defs><title>Artboard 3</title><rect class="cls-1" x="0.01" y="0.01" width="2499.98" height="1663.98"/><path class="cls-2" d="M1118.36,279.59a411.94,411.94,0,0,0-191-68.56l.48-5a416.92,416.92,0,0,1,193.33,69.4Z"/><path class="cls-2" d="M546.28,390.26l-4.14-2.81a419.26,419.26,0,0,1,78.2-86.39l3.21,3.83A414.78,414.78,0,0,0,546.28,390.26Z"/><path class="cls-2" d="M472.85,667.59a424.64,424.64,0,0,1-2.5-46,413.15,413.15,0,0,1,44-186.85l4.47,2.24a408.2,408.2,0,0,0-43.52,184.61A419.57,419.57,0,0,0,477.82,667Z"/><circle class="cls-2" cx="887.77" cy="621.58" r="361"/><path class="cls-3" d="M1358.77,669.58s-90-24-229,0-100,228-100,228l36.12,327.05,299.88,17.95,31-357Z"/><rect class="cls-1" x="979.44" y="592.23" width="71" height="25"/><path class="cls-1" d="M1050.94,617.73h-72v-26h72Zm-71-1h70v-24h-70Z"/><rect class="cls-1" x="1068.44" y="592.23" width="71" height="25"/><circle class="cls-2" cx="1782.7" cy="785.65" r="354"/><path class="cls-2" d="M2128.12,569.89a407.37,407.37,0,0,0-105.57-113.35l3-4a412.21,412.21,0,0,1,106.85,114.74Z"/><path class="cls-2" d="M1974.63,426.42a403.35,403.35,0,0,0-140.16-44.72l.62-5A408.33,408.33,0,0,1,1977,422Z"/><path class="cls-2" d="M1412.63,615.49l-4.54-2.1a415.61,415.61,0,0,1,115.42-148.28l3.14,3.88A410.66,410.66,0,0,0,1412.63,615.49Z"/><path class="cls-4" d="M1129.77,669.58s-126,11-216,49l-188,275,356-6S1099.77,758.58,1129.77,669.58Z"/><path class="cls-1" d="M1517.55,517.23c42.59,62.87,121,80.89,192.64,81,64.31.15,131.19-14,185.62-49.48,30.75-20,59.86-48,73.7-82.53.72-1.79-2.18-2.57-2.89-.79-12.43,31-37.88,56.62-64.83,75.65-25.8,18.2-55,31.17-85.27,39.86a379.87,379.87,0,0,1-93.69,14.13c-36.18,1-73.32-1.84-108-12.65-37.8-11.79-72.25-33.62-94.69-66.75-1.08-1.59-3.68-.09-2.59,1.51Z"/><path class="cls-2" d="M1085.63,996l-5-.24c5.21-111.2,18.88-196.09,29.43-247.71,11.44-56,21.81-86.14,21.91-86.43l4.72,1.63c-.1.3-10.38,30.21-21.76,85.93C1104.43,800.58,1090.82,885.14,1085.63,996Z"/><path class="cls-1" d="M526.25,432.16c45.4,67.18,134,88.68,210.66,88.1,40.35-.3,81-6.61,118.76-21a305.1,305.1,0,0,0,112.74-75,275.87,275.87,0,0,0,44.16-61.65c13.68-26.23,24-55.3,23.83-85.18a1.5,1.5,0,0,0-3,0c.13,27.39-8.74,54-20.73,78.37a269,269,0,0,1-37.43,56.41,300.48,300.48,0,0,1-106.91,78.62c-36.92,16.2-76.81,24.24-117,26-39.51,1.78-79.7-2.2-117.56-13.93-41.33-12.81-80.35-35.9-104.95-72.3-1.08-1.59-3.68-.09-2.59,1.51Z"/><path class="cls-1" d="M1491.4,754.1c-4.12-33.55,12.83-67.92,39.94-87.52a86,86,0,0,1,21.58-11.46c7.28-2.57,17.36-5.8,25.08-3.87,7.15,1.79,7.79,9.8,8.44,15.91.61,5.72,1.3,11.41,4.12,16.53,12.6,22.89,46.28,1,61.21-7.47,33.44-19.05,74-23.34,109.56-7.19,37.89,17.21,64.31,55.72,67.8,97,.16,1.91,3.16,1.92,3,0A122.91,122.91,0,0,0,1779,675.48c-33.9-22.87-78.16-25.17-115.25-8.82-12.34,5.44-23.41,13.32-35.79,18.71-11.59,5-28.74,10-35.49-4.62-4.32-9.35-.18-27-11.75-31.77-6.43-2.66-15-.52-21.48,1.11a84.71,84.71,0,0,0-22.61,9.45c-31.86,19-52.77,57.33-48.19,94.56.23,1.89,3.23,1.91,3,0Z"/><path class="cls-1" d="M1611.1,903c5.84,26.44,37,36.31,60.13,41.4,29.82,6.56,63.88,4.37,84-21.55,7.92-10.18,12.5-24.11,8.39-36.81-3-9.35-11.54-19.07-22.38-16.83-9.92,2.05-15.08,13.48-14,22.8,1.44,12.34,12.86,20.66,23.36,25.35,7.29,3.26,15.26,5,23,6.88q12.61,3.1,25.41,5.37a308.43,308.43,0,0,0,50.46,4.87c34.37.34,68.2-6.08,98.74-22.15,27.15-14.29,51.66-34.09,80.6-44.83a99.42,99.42,0,0,1,80.69,4.6c43.84,22.45,67.39,70.08,92.3,110.11,3,4.85,6.11,9.68,9.29,14.44,1.06,1.6,3.66.1,2.59-1.52-23.94-35.9-42.82-76.56-75.09-106.12-15.57-14.26-34.2-24.92-55-29.14-25.62-5.19-50.16.84-73.11,12.51-25.38,12.91-48.11,30.44-74,42.43-29.86,13.83-63.69,17.85-96.32,16.42a321.41,321.41,0,0,1-49.46-6.23c-14.58-3-30.84-5.55-43.92-12.91-11.58-6.52-21.74-19.51-13.94-32.89,3.26-5.59,9.33-8.73,15.71-6.57,6.55,2.22,10.82,9.16,12.58,15.5,4.11,14.9-4.09,30.13-14.82,40-12,11-27.56,16.07-43.63,16.6s-32.18-2.84-47.39-7.67c-11.77-3.74-23.84-9.12-32.46-18.23a34.8,34.8,0,0,1-8.85-16.61c-.42-1.89-3.31-1.09-2.89.79Z"/><path class="cls-4" d="M1358.77,669.58s130,23,213,61c0,0,201,234,166,663l-21.42,69.63a124.78,124.78,0,0,1-98.25,86.3h0a124.84,124.84,0,0,1-104.72-30.44c-40.46-36.53-97.45-108.56-162.61-250.49l-33-248S1319.77,860.58,1358.77,669.58Z"/><path class="cls-1" d="M1446.19,1169.3l-101-145.59a18.38,18.38,0,0,0-14-7.86c-11.26-.65-31.27-2-48-3.18a67.94,67.94,0,0,0-49.75,16.88l-89.24,127.53,47.28,61.2,80.44-44.09s21.77,79.25,93.89,68.39C1365.77,1242.58,1408.92,1224.78,1446.19,1169.3Z"/><path class="cls-1" d="M1388.59,1113.08c.3-20.68.81-41.38.85-62.06a72.29,72.29,0,0,0-4.23-24.85c-2.38-6.52-5-14.24-10.88-18.64-7.9-5.89-14.66,3-18.28,9.42a48.43,48.43,0,0,0-6.15,21.36l-1,20.6Z"/><path class="cls-5" d="M1248.2,1247.81h-506a2.48,2.48,0,0,1-2.23-1.36l-195.88-386a2.51,2.51,0,0,1,2.23-3.64h506a2.5,2.5,0,0,1,2.23,1.37l73.89,145.62-4.46,2.26-73.19-144.25H550.39l193.34,381h500.39l-102.19-201.38,4.46-2.26,104,205a2.5,2.5,0,0,1-2.23,3.63Z"/><polygon class="cls-6" points="1230.71 1260.58 724.71 1260.58 632.68 1079.22 528.83 874.58 1034.83 874.58 1230.71 1260.58"/><rect class="cls-6" x="1182.77" y="1229.58" width="218" height="31"/><path class="cls-5" d="M1333.77,490.58s51,106-24,96S1333.77,490.58,1333.77,490.58Z"/><path class="cls-1" d="M1175.77,785.58s-41,9-33-32l5.83-57.87,9.17-91.13,155-103s-8,93,21,191C1333.77,692.58,1334.77,744.58,1175.77,785.58Z"/><path class="cls-1" d="M1142.77,383.58s-23,29-13,76c0,0-24,43-17,75s179,6,179,6l16-92-43-92Z"/><path class="cls-6" d="M1148.6,695.71l9.17-91.13,120.54-59.3S1288.31,698.22,1148.6,695.71Z"/><polygon class="cls-5" points="1178.79 523.58 1157.4 500.01 1184 449.67 1188.42 452 1163.46 499.25 1182.49 520.21 1178.79 523.58"/><path class="cls-5" d="M1281.51,498.52c-.5.79,1.61,6.28,1.8,7.23a124,124,0,0,1,2.43,19.39c1,19.89-2.85,40.07-12.48,57.61-11.43,20.82-32.43,38.07-53.92,47.93-26.71,12.25-60.28,11.16-82.86-9.16-23-20.69-27.47-54.3-26.48-83.57.18-5.35.56-10.7,1.08-16s3-12.48,2.27-17.61c0,0,2.45,17.27,28.45,12.27,23.82-4.58,40.92-10.84,61.3,3.52a44.15,44.15,0,0,0,21.51,7.82C1240.31,529.29,1264.45,526,1281.51,498.52Z"/><path class="cls-5" d="M1251.77,378.58c-.35,2.45-12.29,7.24-14.16,8.16a141.24,141.24,0,0,1-38,12.64c-44.58,7.89-100-12.83-116.5-57.92-11.89-32.52-1.35-72.27,26.82-93,13.52-10,30.14-14.51,46.84-13.85,51,2,77,22,104,68,0,0,25-16,57,0s30,66,15,70c0,0,30-3,38,41s-56,56-56,56S1242.77,440.58,1251.77,378.58Z"/><rect class="cls-6" x="1290.79" y="444.55" width="5" height="39.11" transform="translate(683.94 1695.64) rotate(-83.42)"/><path class="cls-1" d="M1294.77,477.58s12-30,43-12c0,0,20,18-7,46,0,0-22,18-40-2S1294.77,477.58,1294.77,477.58Z"/><path class="cls-5" d="M1235.28,1243.9c-36,20.44-64,53.35-81.78,90.47a220.76,220.76,0,0,0-18.69,58.26c-3,17.55-5,37.54,3.16,54.06,7.72,15.66,24.82,22,40.9,15.3a37.29,37.29,0,0,0,23-39.19c-2.22-18.91-15.92-34.64-33.14-41.86-20.42-8.55-43.63-6.19-64.21.47-23.7,7.67-45.78,20.08-68.34,30.47-23.4,10.78-47.09,20.95-71.2,30-47.62,18-97.09,31.88-147.77,37.48-93.53,10.34-192.72-8.36-264.43-72.58-31.1-27.85-55.7-63.13-68.47-103-15.84-49.52-13.48-102.68-5.58-153.42,1.89-12.15,4.12-24.24,6.53-36.3.37-1.89-2.52-2.7-2.9-.8-9.45,47.43-16.43,96.33-10.79,144.7,4.89,42,20.2,81.46,45.87,115.11,51.89,68,133.8,104.07,217.72,110.82,96.6,7.78,191.3-20.49,278.91-58.79,22.56-9.87,44.56-20.88,67-31.11,21.72-9.91,45.34-18.13,69.56-14.81,21.64,3,41.68,16.48,47.29,38.47,5,19.69-6.51,39.77-26.89,43.63-22.59,4.29-34-17.28-35.44-36.57-1.43-19.79,3-40.44,8.91-59.23,12.21-39,35.3-75.28,66.88-101.43a177.3,177.3,0,0,1,25.48-17.55,1.5,1.5,0,0,0-1.52-2.59Z"/><path class="cls-5" d="M513,1376.87A281.49,281.49,0,0,1,420,1256a274.78,274.78,0,0,1-18.75-77.31c-2.52-27.54-1.07-55.26,1.53-82.73,2.91-30.67,7.23-61.19,9.39-91.93.14-1.93-2.86-1.92-3,0-4,56.53-15.57,112.94-11.32,169.81A283.5,283.5,0,0,0,511.5,1379.46c1.55,1.15,3-1.45,1.52-2.59Z"/><path class="cls-5" d="M1905.8,1092.74c45.48,14.3,75.2,61.38,74.47,108.19a100.4,100.4,0,0,1-8.72,39.55c-.78,1.75,1.8,3.27,2.59,1.51,20.19-44.93,5.16-100.83-31.94-132.4a102.31,102.31,0,0,0-35.61-19.75c-1.84-.58-2.63,2.32-.79,2.9Z"/><path class="cls-5" d="M1849.73,885.79c-13.32,28.07-27,57.16-29.17,88.63-.45,6.55-.72,13,3.08,18.65a13.17,13.17,0,0,0,12.57,5.7c11.18-1.52,14.63-16.34,8.36-24.58-5.69-7.47-17.9-7.84-25.7-4-12,5.87-18.56,19-23.18,30.9-9,23-9.07,53.8,12,70.35,19.55,15.31,47.26,13.22,70.59,15.32,1.92.17,1.91-2.83,0-3-17.36-1.56-35.29-1-52.09-6.27-8.67-2.71-16.77-7.21-22.69-14.22-7.38-8.73-10.48-20.56-10.68-31.82-.21-12.25,3.06-24.39,8.23-35.42,4.77-10.2,12.42-23.45,24.9-25,10.57-1.34,21.83,5.35,18.07,17.47-1.3,4.23-5.31,7.62-9.88,7.45-4.9-.17-8.26-3.73-9.87-8-2.24-6-.91-13.52-.18-19.71,3.41-28.6,16-55.1,28.18-80.83.83-1.73-1.76-3.26-2.59-1.51Z"/><path class="cls-5" d="M1672,498.34a191.81,191.81,0,0,0,81.7,58.63c1.81.67,2.59-2.23.8-2.9a188.87,188.87,0,0,1-80.38-57.86c-1.21-1.49-3.32.64-2.12,2.13Z"/><path class="cls-5" d="M1789.07,453c1.14,15.23,2.61,30.42,3.38,45.68,1.42,28.32,1.29,56.72.83,85.07,0,1.93,3,1.93,3,0,.46-28.35.59-56.75-.83-85.07-.77-15.26-2.24-30.45-3.38-45.68-.15-1.91-3.15-1.92-3,0Z"/><path class="cls-5" d="M1025.36,435.52c16-22.32,36.48-40.58,62-51.21,1.76-.73,1-3.63-.8-2.89-26.31,11-47.29,29.56-63.78,52.59-1.13,1.57,1.47,3.07,2.59,1.51Z"/><path class="cls-5" d="M810.55,465.64c-2.36,30.13-4.69,70,21.83,91.17,12.53,10,29.08,13.8,44.46,8.88a51.3,51.3,0,0,0,20.59-12.6c5.54-5.43,11.2-11,15.18-17.72,3.23-5.46,6.13-13.07,3.91-19.37s-8.17-8.73-14.44-7.73c-14.41,2.3-21.52,18.62-21.29,31.7.24,14.08,8.65,25.89,21.27,31.84,14.25,6.72,30.77,4.28,44.58-2.64,7.32-3.68,13.14-9.95,17.43-16.83,6.15-9.9,11.34-20.48,16.41-31s9.83-21,14.72-31.49,10.46-20.51,15.45-30.88c.83-1.74-1.75-3.26-2.59-1.52-3.35,7-7.26,13.63-10.61,20.62-3.66,7.66-7.2,15.37-10.77,23.08C979.83,516,972.86,530.8,964.83,545c-3.92,6.94-8.16,13.66-14.68,18.47-6.06,4.47-13.72,6.83-21,8.25-13.69,2.66-27.81-.5-37.44-11.22-9-10.07-10.49-26-3.84-37.77,3.75-6.63,11.58-13.51,19.81-11.39,10.41,2.68,6.13,16.12,2.37,22.5-7,11.9-19.35,23.71-32.4,28.4-14.85,5.34-31,2-43.26-7.71-25.79-20.5-23.1-59.68-20.81-88.91.15-1.93-2.85-1.92-3,0Z"/><rect class="cls-3" x="504.23" y="232.84" width="31.11" height="31.11" transform="translate(327.89 -294.79) rotate(45)"/><rect class="cls-3" x="1972.78" y="353.96" width="31.11" height="31.11" transform="translate(843.66 -1297.74) rotate(45)"/><rect class="cls-3" x="792.15" y="1378.18" width="31.11" height="31.11" transform="translate(1222.09 -162.92) rotate(45)"/><path class="cls-1" d="M1630.31,583.3a8,8,0,1,1-.22,11.31A8,8,0,0,1,1630.31,583.3Z"/><path class="cls-1" d="M721.17,513a8,8,0,1,1-.22,11.31A8,8,0,0,1,721.17,513Z"/><path class="cls-1" d="M1163.54,538.54c1.8,13.08,12.43,22.42,23.74,20.86s19-13.42,17.23-26.5Z"/><path class="cls-6" d="M1139.3,487.51c-10,0-21.09-3.22-30-14.3a2.54,2.54,0,0,1-.52-1.94l5.71-37.37a2.49,2.49,0,0,1,2.25-2.11c1.1-.1,27.31-2.24,57.09,9a2.52,2.52,0,0,1,1.53,3L1166,479.69a2.47,2.47,0,0,1-1.21,1.56A59.57,59.57,0,0,1,1139.3,487.51Zm-25.4-16.59c7.67,9,17.95,12.85,30.59,11.36a56.06,56.06,0,0,0,16.91-4.94l8.56-32.61a141.52,141.52,0,0,0-50.82-8.07Z"/><path class="cls-6" d="M1199.77,459c-.11-.08-10.43-8.23-28.41-6.25l-.55-5c20.2-2.23,31.64,7,32.12,7.35Z"/><path class="cls-6" d="M1233.27,503.74c-12.26,0-25.94-4.41-37.18-19.28a2.56,2.56,0,0,1-.48-1.87l5.34-36.67a2.5,2.5,0,0,1,2.41-2.14c1.71,0,42.16-.85,72.46,12.7a2.5,2.5,0,0,1,1.37,3L1267.07,493a2.5,2.5,0,0,1-1,1.38C1265.77,494.53,1251,503.74,1233.27,503.74Zm-32.56-21.48c10.28,13.11,23.8,18.48,40.2,16a65.68,65.68,0,0,0,21.65-7.62l9.2-30.45c-25.19-10.55-57.68-11.38-66.17-11.41Z"/><rect class="cls-6" x="1273.86" y="460.07" width="7.37" height="5" transform="translate(560.54 1616.69) rotate(-78.05)"/><path class="cls-5" d="M1224,474.49c-.74,3.57-3.16,6.09-5.4,5.62s-3.46-3.74-2.72-7.31,3.16-6.09,5.4-5.62S1224.71,470.91,1224,474.49Z"/><path class="cls-5" d="M1158,465.4c-.74,3.57-3.16,6.09-5.41,5.62s-3.46-3.73-2.71-7.31,3.16-6.09,5.4-5.62S1158.71,461.83,1158,465.4Z"/><path class="cls-5" d="M1184.31,416.15a119.94,119.94,0,0,1-33.91-5.23l1.41-4.8c30.87,9.09,57.17,6.07,78.18-9a74.29,74.29,0,0,0,22.52-25.55l4.53,2.11c-.29.62-7.25,15.33-23.94,27.36C1222.52,408.7,1206.49,416.15,1184.31,416.15Z"/><path class="cls-5" d="M1331.18,376.43l-2.6-4.27c.16-.09,15.87-9.83,18.34-23.36l4.92.9C1349,365.45,1331.91,376,1331.18,376.43Z"/><path class="cls-5" d="M1327.44,377.73l-2.1-4.54a43.23,43.23,0,0,1,33.11-1.2l-1.92,4.62A38.59,38.59,0,0,0,1327.44,377.73Z"/><path class="cls-5" d="M1877.8,885.54l-115.15-57.75a9.43,9.43,0,0,1-4.2-12.66l114-227.33a9.42,9.42,0,0,1,12.66-4.2l115.15,57.75a9.42,9.42,0,0,1,4.2,12.66l-114,227.33A9.44,9.44,0,0,1,1877.8,885.54Z"/><polygon class="cls-6" points="1888.79 861.27 1861.52 847.59 1830.72 832.15 1822.29 827.92 1818.68 826.11 1793.36 813.42 1775.24 804.33 1777.32 800.2 1778.93 796.98 1785.32 784.24 1801.02 752.96 1823.7 707.74 1824.09 706.97 1824.63 705.88 1825.89 703.38 1826.45 702.27 1837.04 681.15 1874.16 607.17 1987.71 664.09 1965.97 707.41 1938.28 762.62 1888.79 861.27"/><path class="cls-1" d="M1941.38,622.52a3.33,3.33,0,1,1-1.49-4.46A3.34,3.34,0,0,1,1941.38,622.52Z"/><rect class="cls-5" x="1976.54" y="616.95" width="4.42" height="24.26" transform="translate(529.31 2115.78) rotate(-63.36)"/><rect class="cls-5" x="1978.23" y="689.94" width="17.3" height="4.42" transform="translate(477.43 2157.87) rotate(-63.36)"/><rect class="cls-5" x="1966.16" y="712.2" width="19.29" height="4.42" transform="translate(438.58 2146.58) rotate(-62.85)"/><rect class="cls-1" x="1933.14" y="613.82" width="3" height="27.34" transform="translate(486.86 2055.96) rotate(-62.59)"/><rect class="cls-1" x="1847.37" y="700.08" width="94.32" height="3" transform="translate(-123.09 598.27) rotate(-17.39)"/><rect class="cls-1" x="1866.25" y="724.5" width="29.04" height="3" transform="translate(-131.02 595.33) rotate(-17.39)"/><rect class="cls-1" x="1901.96" y="714.94" width="18.62" height="3" transform="translate(-126.77 604.01) rotate(-17.39)"/><rect class="cls-1" x="1829.52" y="769.29" width="5" height="127.03" transform="translate(266.4 2097.2) rotate(-63.37)"/><rect class="cls-1" x="1928.44" y="572.12" width="5" height="127.01" transform="translate(497.32 2076.91) rotate(-63.37)"/><rect class="cls-5" x="1843.31" y="873.12" width="21.87" height="14" transform="translate(236.38 2143.19) rotate(-63.37)"/><polygon class="cls-4" points="1631.76 860.74 1628.62 848.21 1638.06 828.08 1645.3 831.47 1637.07 849.03 1637.69 851.5 1654.14 848.44 1655.6 856.3 1631.76 860.74"/><polygon class="cls-4" points="1011.57 701.85 998.91 699.28 984.79 682.11 990.97 677.03 1003.28 692.01 1005.78 692.51 1010.09 676.35 1017.82 678.41 1011.57 701.85"/><polygon class="cls-5" points="2048.49 980.97 2034.49 992.98 1977.82 969.63 1943.63 1052.66 2063.98 1102.23 2095.18 1026.47 2098.17 1019.2 2104.43 1004.01 2048.49 980.97"/><path class="cls-5" d="M2007.65,1090.6,1947.88,1066a1.58,1.58,0,0,1-.82-.81,1.53,1.53,0,0,1,0-1.15l34.2-83a1.49,1.49,0,0,1,2-.82l55.83,23,13.29-11.41a1.51,1.51,0,0,1,1.55-.24l55.94,23a1.49,1.49,0,0,1,.82,2l-10.75,26.11-2.78-1.14,10.18-24.72-53.7-22.12-13.3,11.41a1.51,1.51,0,0,1-1.55.25l-55.28-22.77-33,80.25,58.38,24Z"/><path class="cls-5" d="M2068.8,1115.66a1.6,1.6,0,0,1-.57-.11l-36.11-14.87,1.14-2.77,34.72,14.3,25.9-62.89,2.78,1.14-26.47,64.27a1.55,1.55,0,0,1-.81.82A1.66,1.66,0,0,1,2068.8,1115.66Z"/><rect class="cls-3" x="2055.78" y="986.9" width="10.78" height="17.36" transform="translate(534.43 -709.9) rotate(22.38)"/><rect class="cls-3" x="2077.52" y="995.85" width="10.78" height="17.36" transform="translate(539.47 -717.5) rotate(22.38)"/><rect class="cls-3" x="1958.12" y="1003.6" width="81.56" height="43.91" transform="translate(541.14 -683.92) rotate(22.38)"/><rect class="cls-6" x="2045.68" y="1027.71" width="23.51" height="43.91" transform="translate(554.73 -704.39) rotate(22.38)"/><path class="cls-1" d="M2061.25,1091.09a2.91,2.91,0,1,1-1.59-3.8A2.93,2.93,0,0,1,2061.25,1091.09Z"/><path class="cls-1" d="M1959.56,1049.21a2.91,2.91,0,1,1-1.58-3.8A2.91,2.91,0,0,1,1959.56,1049.21Z"/><rect class="cls-4" x="2074.33" y="796.7" width="106.44" height="5" transform="translate(66.94 1757.88) rotate(-45.54)"/><rect class="cls-3" x="2114.13" y="818.42" width="56.12" height="5" transform="translate(55.81 1774.81) rotate(-45.54)"/><rect class="cls-4" x="303.94" y="488.4" width="106.44" height="5" transform="translate(-243.37 401.97) rotate(-45.54)"/><rect class="cls-3" x="343.74" y="510.12" width="56.12" height="5" transform="translate(-254.48 418.92) rotate(-45.54)"/><path class="cls-5" d="M1569.33,225l-10.53-12.05a187.28,187.28,0,0,1,40.88-25.61c32.73-15.2,65.43-18.79,94.56-10.37l-4.45,15.37C1628.08,174.47,1569.91,224.46,1569.33,225Z"/><path class="cls-5" d="M1593.63,469.53a169.16,169.16,0,0,1-32.85-24.22,133.51,133.51,0,0,1-25.72-33.08,124.12,124.12,0,0,1-8.37-19.8l-1.55-5-.75-2.52-.65-2.55-1.31-5.1c-.43-1.71-.75-3.44-1.13-5.16a177.23,177.23,0,0,1-3.86-42.36c0-3.58.36-7.16.63-10.75.1-1.8.41-3.57.6-5.37s.38-3.59.72-5.36l.94-5.34c.3-1.79.77-3.54,1.15-5.32.74-3.55,1.79-7,2.76-10.54a150.73,150.73,0,0,1,18.57-39.74l1.51-2.32c.52-.77,1.08-1.51,1.62-2.26,1.09-1.49,2.17-3,3.31-4.45,2.35-2.87,4.65-5.78,7.21-8.47s5.16-5.34,7.8-8c2.79-2.46,5.5-5,8.46-7.29s6-4.48,9-6.63c1.55-1,3.15-2,4.72-3,.79-.49,1.58-1,2.38-1.47l2.44-1.37a139.38,139.38,0,0,1,20.28-9.36l5.26-1.86,5.35-1.59c.89-.25,1.77-.54,2.68-.76l2.71-.65c1.81-.42,3.6-.9,5.43-1.24,3.66-.66,7.31-1.37,11-1.75,3.69-.53,7.42-.71,11.13-1a153.72,153.72,0,0,1,22.3.9,138.13,138.13,0,0,1,21.83,4.38,143.47,143.47,0,0,1,40,18.51l2.3,1.51,2.22,1.6c1.47,1.08,3,2.13,4.41,3.24,2.83,2.3,5.73,4.5,8.37,7s5.28,5,7.84,7.52c1.29,1.27,2.46,2.65,3.69,4s2.46,2.64,3.58,4.05a166.91,166.91,0,0,1,23.2,35.85,184.47,184.47,0,0,1,8.1,19.51c.57,1.66,1.08,3.34,1.61,5s1.11,3.32,1.53,5l1.37,5.05c.23.84.48,1.67.67,2.52l.56,2.55,1.11,5.09c.36,1.7.64,3.51,1,5.25s.47,3.54.7,5.3.31,3.53.41,5.3a117.11,117.11,0,0,1-.81,21,139.49,139.49,0,0,1-11.25,39.31,176.38,176.38,0,0,0,3.22-39.66,122,122,0,0,0-2.36-19.2l-1.08-4.65c-.43-1.53-.83-3.06-1.28-4.57s-.94-3-1.5-4.51l-1.7-4.58a190.46,190.46,0,0,0-16.9-34.59A181.42,181.42,0,0,0,1767.32,266c-2-2.42-3.92-4.92-6.07-7.21-1-1.16-2.07-2.35-3.14-3.48l-3.26-3.36c-1.06-1.14-2.22-2.18-3.35-3.25s-2.23-2.16-3.42-3.15c-2.36-2-4.68-4.05-7.16-5.89s-5-3.66-7.44-5.45c-1.27-.86-2.58-1.65-3.86-2.49l-1.94-1.24-2-1.13a127.15,127.15,0,0,0-33.53-13.62l-4.39-1c-1.47-.31-3-.52-4.43-.8l-2.21-.4-2.22-.27c-1.49-.17-3-.41-4.46-.52a125.85,125.85,0,0,0-17.9-.26,133,133,0,0,0-17.74,2.44c-1.46.29-2.91.7-4.37,1l-2.18.53c-.73.18-1.44.42-2.15.63l-4.31,1.29-4.21,1.51a120.13,120.13,0,0,0-56.11,43,135.81,135.81,0,0,0-17,32.2c-1,2.91-2.07,5.8-2.86,8.78-.41,1.49-.92,2.95-1.26,4.46l-1.1,4.51c-.42,1.5-.64,3-1,4.56s-.68,3-.87,4.58c-.47,3.08-1,6.17-1.27,9.29-.72,6.22-1,12.52-1.07,18.84.09,6.33.33,12.69,1,19,.17,1.59.28,3.19.5,4.78l.69,4.76.34,2.38.43,2.38.86,4.75a112.65,112.65,0,0,0,5.06,18.1,126.57,126.57,0,0,0,8.14,17.31,144.73,144.73,0,0,0,10.66,16.34A231.06,231.06,0,0,0,1593.63,469.53Z"/><path class="cls-4" d="M1752.57,481.53c-8.54.19-17-2-25.4-6a8.55,8.55,0,0,1-4.66-9.56l31.69-140.77a8.42,8.42,0,0,1,8.2-6.63,60.77,60.77,0,0,1,25.54,5.75,8.43,8.43,0,0,1,4.57,9.5l-31.76,141.1A8.55,8.55,0,0,1,1752.57,481.53Z"/><path class="cls-5" d="M1777.29,375l-2.93-.66,11.87-52.69a60.39,60.39,0,0,0-35.38-8l-4.18,18.58-2.93-.66,4.66-20.71,1.09-.1a63.44,63.44,0,0,1,39.21,8.83l.93.55Z"/><path class="cls-5" d="M1730.29,474.13a73.49,73.49,0,0,1-16-7.17l-.94-.55.24-1.07,27.51-122.18,2.92.66L1716.8,464.93a70.36,70.36,0,0,0,14.36,6.33Z"/><path class="cls-5" d="M1745.54,476.46a51.07,51.07,0,0,1-11.06-1.23l.65-2.93a46.69,46.69,0,0,0,17,.67l8.83-39.23,2.93.66-9.28,41.2-1,.17A47.74,47.74,0,0,1,1745.54,476.46Z"/><path class="cls-5" d="M1794.25,447.47h0l15.15-67.29h0a18.59,18.59,0,0,1,14,22.22l-7,31A18.59,18.59,0,0,1,1794.25,447.47Z"/><path class="cls-6" d="M1811.74,410.61l-3.4,12.88c-5.33,20.24-20.25,37.23-41.65,47.69-1.85.91-3.74,1.77-5.69,2.57l31.1-138.12,4.53,8.35,7.84,14.42C1813.67,375.34,1816.22,393.62,1811.74,410.61Z"/><path class="cls-5" d="M1796.63,344l-29.94,127.2c-1.85.91-3.74,1.77-5.69,2.57l31.1-138.12Z"/><path class="cls-4" d="M1677.76,503.19c7.49-4.1,13.73-10.21,19-17.92a8.54,8.54,0,0,0-.75-10.6l-97.88-106a8.43,8.43,0,0,0-10.42-1.63,60.79,60.79,0,0,0-19.23,17.75,8.44,8.44,0,0,0,.8,10.52l98.11,106.26A8.53,8.53,0,0,0,1677.76,503.19Z"/><path class="cls-5" d="M1603.05,423.33,1564.92,382l.54-.94A63.36,63.36,0,0,1,1595,353.82l1-.45L1610.37,369l-2.2,2-12.92-14a60.36,60.36,0,0,0-26.64,24.59l36.64,39.69Z"/><path class="cls-5" d="M1693.35,485.64l-2.19-2.05a70.12,70.12,0,0,0,9.26-12.67l-84.2-91.21,2.2-2,85.7,92.82-.54.95A74,74,0,0,1,1693.35,485.64Z"/><path class="cls-5" d="M1673,499.1l-28.64-31,2.2-2,27.28,29.55a46.74,46.74,0,0,0,14.41-9.11l2,2.21a49.54,49.54,0,0,1-16.34,10.07Z"/><path class="cls-5" d="M1624.64,494.56h0l-46.79-50.68h0a18.59,18.59,0,0,0-1,26.28l21.56,23.35A18.59,18.59,0,0,0,1624.64,494.56Z"/><path class="cls-6" d="M1591.05,471.4l9.39,9.45c14.74,14.86,36.16,22.1,59.92,20.44q3.09-.19,6.21-.61l-96-104,.25,9.5.44,16.41C1571.73,441.84,1578.67,458.94,1591.05,471.4Z"/><path class="cls-5" d="M1570.78,406.15l89.58,95.14q3.09-.19,6.21-.61l-96-104Z"/><path class="cls-3" d="M1133.76,375.66c-13.84-9.82-23.79-21.18-29.6-33.75l4.54-2.09c5.44,11.77,14.84,22.46,28,31.77Z"/><path class="cls-3" d="M1101.29,334.57c-10-31,6.44-57.59,7.15-58.71l4.23,2.67-2.12-1.34,2.12,1.33c-.16.26-15.93,25.83-6.63,54.51Z"/><path class="cls-1" d="M1372.74,974.22l-5-.29c10.3-178.28,34.69-310.68,34.94-312l4.91.91C1407.35,664.17,1383,796.28,1372.74,974.22Z"/><path class="cls-2" d="M1061.66,847l-4.94-.76C1080.44,693,1100.79,645,1101.65,643l4.58,2C1099.07,661.56,1080.53,725.11,1061.66,847Z"/><path class="cls-6" d="M1809.1,1265.86h86.55a7,7,0,0,1,7,7v29.68a0,0,0,0,1,0,0h-100.6a0,0,0,0,1,0,0v-29.68A7,7,0,0,1,1809.1,1265.86Z" transform="translate(-68.48 104.89) rotate(-3.18)"/><path class="cls-6" d="M1712.73,1317.4H1734a4.4,4.4,0,0,1,4.4,4.4v28.26a0,0,0,0,1,0,0h-30.06a0,0,0,0,1,0,0V1321.8A4.4,4.4,0,0,1,1712.73,1317.4Z" transform="translate(-71.43 97.8) rotate(-3.18)"/><path class="cls-5" d="M1974.2,1470.13l-217.5,12.1-42.5,2.37a8.84,8.84,0,0,1-9.31-8.33l-7.33-131.86a8.84,8.84,0,0,1,8.33-9.31l42.48-2.36,217.51-12.11a8.84,8.84,0,0,1,9.31,8.33l7.34,131.86A8.84,8.84,0,0,1,1974.2,1470.13Z"/><path class="cls-5" d="M1728.05,1500.28a10.37,10.37,0,0,1-10.32-9.76l-7.33-131.86a10.35,10.35,0,0,1,9.75-10.89l42.48-2.36,217.51-12.11A10.33,10.33,0,0,1,1991,1343l7.34,131.86a10.34,10.34,0,0,1-9.75,10.89l-41.47,2.31-.17-3,41.48-2.3a7.33,7.33,0,0,0,6.91-7.73L1988,1343.21a7.33,7.33,0,0,0-7.73-6.92l-217.51,12.11-42.48,2.36a7.35,7.35,0,0,0-6.91,7.73l7.33,131.86a7.35,7.35,0,0,0,7.73,6.92l181.85-10.13.16,3-181.85,10.12Z"/><path class="cls-5" d="M1769.24,1298l194.5-10.82a9.12,9.12,0,0,1,9.61,8.6l2.44,43.92-236.37,13.15,22-49.45A9.1,9.1,0,0,1,1769.24,1298Z"/><path class="cls-3" d="M1756.7,1482.23l-42.5,2.37a8.84,8.84,0,0,1-9.31-8.33l-7.33-131.86a8.84,8.84,0,0,1,8.33-9.31l42.48-2.36Z"/><rect class="cls-6" x="1710.99" y="1360.72" width="33.25" height="98.68" transform="translate(-75.66 98.15) rotate(-3.18)"/><path class="cls-1" d="M1794.12,1323.82a6.5,6.5,0,1,1-6.85-6.13A6.49,6.49,0,0,1,1794.12,1323.82Z"/><path class="cls-1" d="M1801.44,1455.37a6.5,6.5,0,1,1-6.85-6.13A6.51,6.51,0,0,1,1801.44,1455.37Z"/><rect class="cls-1" x="1881.05" y="1322.4" width="95.37" height="118.93" transform="translate(-73.79 109.28) rotate(-3.18)"/><ellipse class="cls-1" cx="1881.12" cy="1384.51" rx="51.95" ry="59.47" transform="translate(-74.01 106.64) rotate(-3.18)"/><path class="cls-5" d="M1900.61,1447.27c-25.88-4.75-45.9-30.48-47.6-61.18s15.33-58.49,40.51-66.08l.87,2.87c-23.88,7.19-40,33.71-38.39,63s20.62,53.89,45.15,58.4Z"/><path class="cls-5" d="M1874.68,1366.27l-2.94-.6a68.8,68.8,0,0,1,8.84-22.47l2.55,1.58A65.71,65.71,0,0,0,1874.68,1366.27Z"/><path class="cls-5" d="M1917.93,1446.3c-11.18-2-21.51-8-29.85-17.2l2.22-2c7.9,8.71,17.64,14.34,28.17,16.27Z"/><circle class="cls-6" cx="1974.11" cy="1379.34" r="59.47" transform="translate(64.04 2846.08) rotate(-72.46)"/><path class="cls-5" d="M1974.17,1319.87v13a46.47,46.47,0,0,1,2.53,92.86c-.88,0-1.77.08-2.64.08a46.47,46.47,0,0,1-2.53-92.87c.88,0,1.76-.07,2.64-.07v-13Zm0,0c-1.11,0-2.24,0-3.36.09a59.47,59.47,0,0,0,3.25,118.85c1.11,0,2.23,0,3.36-.1a59.47,59.47,0,0,0-3.25-118.84Z"/><rect class="cls-3" x="1913.47" y="1296.98" width="51.47" height="14.87" transform="translate(-69.47 109.75) rotate(-3.18)"/><rect class="cls-1" x="1748.11" y="1326.31" width="5" height="92.95" transform="translate(-73.55 99.36) rotate(-3.18)"/><rect class="cls-1" x="1943.9" y="1374.29" width="53.92" height="3" transform="translate(-354.85 1982.55) rotate(-49.54)"/><rect class="cls-1" x="1984.74" y="1373.17" width="12.49" height="3" transform="translate(-346.94 1997.47) rotate(-49.54)"/><rect class="cls-1" x="1963.5" y="1393.07" width="21.04" height="3" transform="translate(-367.88 1992.14) rotate(-49.55)"/><path class="cls-1" d="M1998.52,1420l-1.54-2.57a44.36,44.36,0,0,0,19.77-25.68l2.88.84A47.29,47.29,0,0,1,1998.52,1420Z"/><path class="cls-1" d="M2012,1356.15a44.4,44.4,0,0,0-30.47-20.58l.49-3a47.36,47.36,0,0,1,32.54,22Z"/><path class="cls-1" d="M1945.36,1345.54l-1.94-2.29a47.18,47.18,0,0,1,24.93-10.94l.36,3A44.12,44.12,0,0,0,1945.36,1345.54Z"/><rect class="cls-5" x="1801.63" y="1274.72" width="100.6" height="3" transform="translate(-67.77 104.4) rotate(-3.17)"/><rect class="cls-5" x="1707.8" y="1322.75" width="30" height="3" transform="translate(-70.62 97.33) rotate(-3.17)"/><polygon class="cls-1" points="1712.34 1461.83 1710.22 1423.7 1713.21 1423.54 1715.17 1458.66 1746.87 1456.9 1747.03 1459.9 1712.34 1461.83"/><rect class="cls-5" x="733.96" y="197.19" width="139.21" height="238.74" rx="4.65" transform="translate(67.88 -135.87) rotate(10.09)"/><path class="cls-5" d="M838.84,433.17a5.64,5.64,0,0,1-1.08-.1l-127.9-22.75a6.16,6.16,0,0,1-5-7.14l13.05-73.37,2.95.53-13,73.37a3.16,3.16,0,0,0,2.55,3.66l127.89,22.75a3.15,3.15,0,0,0,3.66-2.55l40.19-225.89a3.09,3.09,0,0,0-.52-2.36,3.13,3.13,0,0,0-2-1.3l-16.21-2.88.53-2.95,16.21,2.88a6.17,6.17,0,0,1,5,7.13l-40.2,225.9A6.16,6.16,0,0,1,838.84,433.17Z"/><path class="cls-5" d="M726.3,300l-3-.53,21.74-122.16a6.16,6.16,0,0,1,7.13-5l98.22,17.48-.52,3-98.22-17.47a3.15,3.15,0,0,0-3.66,2.55Z"/><rect class="cls-5" x="880.84" y="246.28" width="9.05" height="35.56" transform="translate(59.95 -151.01) rotate(10.09)"/><rect class="cls-5" x="873.16" y="289.44" width="9.05" height="35.56" transform="translate(67.39 -149) rotate(10.09)"/><rect class="cls-6" x="752.88" y="223.98" width="118.8" height="87.27" transform="translate(59.44 -138.15) rotate(10.09)"/><circle class="cls-1" cx="793" cy="375.94" r="49.18" transform="translate(-33.56 670.85) rotate(-45)"/><path class="cls-3" d="M793,353.76a22.18,22.18,0,1,1-21.78,18.3A21.94,21.94,0,0,1,793,353.76Zm0-27a49.18,49.18,0,0,0-8.55,97.6,50.22,50.22,0,0,0,8.67.76,49.18,49.18,0,0,0,8.56-97.6,50.33,50.33,0,0,0-8.68-.76Z"/><rect class="cls-1" x="817.42" y="165.25" width="5" height="118.8" transform="translate(455.11 992.54) rotate(-79.91)"/><rect class="cls-1" x="802.13" y="251.17" width="5" height="118.8" transform="translate(357.91 1048.36) rotate(-79.91)"/><rect class="cls-1" x="772.49" y="257.79" width="81.83" height="3" transform="translate(-40.06 237.76) rotate(-16.24)"/><rect class="cls-1" x="827.71" y="268.86" width="15.76" height="3" transform="translate(-42.27 244.41) rotate(-16.24)"/><rect class="cls-1" x="790.73" y="278.21" width="25.5" height="3" transform="matrix(0.96, -0.28, 0.28, 0.96, -46.16, 235.79)"/><path class="cls-5" d="M793,400.88a25,25,0,0,1-15.36-5.29l1.85-2.36a21.93,21.93,0,0,0,35.1-13.45,22.34,22.34,0,0,0,.3-5.16l3-.18A25,25,0,0,1,793,400.88Z"/><path class="cls-5" d="M769.79,385.05a24.94,24.94,0,0,1,37-29.88l-1.66,2.5a21.94,21.94,0,0,0-24.7.28,22,22,0,0,0-7.87,26Z"/><path class="cls-6" d="M429.79,573.73h37.32a2.69,2.69,0,0,1,2.69,2.69v11.26a0,0,0,0,1,0,0H427.11a0,0,0,0,1,0,0V576.42A2.69,2.69,0,0,1,429.79,573.73Z" transform="translate(-137 138.47) rotate(-15.26)"/><rect class="cls-5" x="428.95" y="566.2" width="184.57" height="142.43" rx="6.87" transform="translate(-149.36 159.62) rotate(-15.26)"/><path class="cls-5" d="M533.23,721.92l-.79-2.9,81.4-22.2a5.36,5.36,0,0,0,3.77-6.59L583.75,566.08a5.38,5.38,0,0,0-6.6-3.77l-164.8,45a5.38,5.38,0,0,0-3.77,6.6l8.93,32.74-2.89.79-8.93-32.74a8.37,8.37,0,0,1,5.87-10.28l164.8-45a8.37,8.37,0,0,1,10.28,5.87L620.5,689.44a8.35,8.35,0,0,1-5.87,10.28Z"/><path class="cls-5" d="M447.63,745a8.38,8.38,0,0,1-8.08-6.17l-21.07-77.25,2.89-.79L442.44,738a5.37,5.37,0,0,0,6.6,3.77l52.21-14.24.79,2.9-52.21,14.24A8.42,8.42,0,0,1,447.63,745Z"/><rect class="cls-6" x="509.21" y="539.37" width="115.55" height="108.36" rx="6.9" transform="matrix(0.96, -0.26, 0.26, 0.96, -136.2, 170.11)"/><rect class="cls-3" x="433.53" y="593.24" width="61.08" height="22.3" rx="1.11" transform="translate(-142.68 143.41) rotate(-15.26)"/><rect class="cls-1" x="459.95" y="692.71" width="67.93" height="13.44" rx="0.72" transform="translate(-166.64 154.61) rotate(-15.26)"/><path class="cls-4" d="M548.6,684.51a7.45,7.45,0,1,1-9.15-5.23A7.46,7.46,0,0,1,548.6,684.51Z"/><path class="cls-1" d="M538.81,647.18a8.41,8.41,0,0,1-8.1-6.19L522,609.1l2.9-.78,8.69,31.88a5.42,5.42,0,0,0,6.63,3.79l61.27-16.71.79,2.89L541,646.89A8.44,8.44,0,0,1,538.81,647.18Z"/><rect class="cls-1" x="611.42" y="561.86" width="3" height="50.76" transform="translate(-132.92 181.97) rotate(-15.26)"/><path class="cls-1" d="M518.42,595.93l-6.77-24.83a8.4,8.4,0,0,1,5.89-10.31L593,540.22a8.39,8.39,0,0,1,10.31,5.9l2.22,8.15-2.89.78-2.22-8.15a5.4,5.4,0,0,0-6.63-3.78l-75.41,20.57a5.38,5.38,0,0,0-3.79,6.62l6.77,24.83Z"/><circle class="cls-1" cx="566.99" cy="593.55" r="29.75" transform="translate(-202.83 878.46) rotate(-66.62)"/><path class="cls-5" d="M567,563.79v9a20.78,20.78,0,1,1-5.48.74,20.79,20.79,0,0,1,5.48-.74v-9Zm0,0a29.76,29.76,0,1,0,28.69,21.93A29.53,29.53,0,0,0,567,563.79Z"/><rect class="cls-4" x="440.51" y="626.91" width="17.4" height="12" rx="0.48" transform="translate(-150.71 140.5) rotate(-15.26)"/><ellipse class="cls-3" cx="851.53" cy="1062.92" rx="33.42" ry="50.99" transform="translate(-509.88 1024.85) rotate(-49.7)"/><circle class="cls-5" cx="813.61" cy="456.81" r="10.51" transform="translate(182.81 1144.37) rotate(-76.78)"/><circle class="cls-5" cx="985.29" cy="1436.46" r="10.51" transform="translate(-472.19 482.55) rotate(-22.35)"/><circle class="cls-5" cx="1792.72" cy="586.55" r="10.51" transform="translate(110.32 1439.44) rotate(-45)"/><circle class="cls-5" cx="519.21" cy="1377.78" r="10.51" transform="translate(-737.32 610.33) rotate(-37.94)"/><path class="cls-1" d="M653.07,1142.39,665,1092l7.32-26a7.72,7.72,0,0,1,7.67-5.64h0a7.72,7.72,0,0,1,6.19,3.42l1.23,1.84a87.26,87.26,0,0,1,13.7,34.88h0a87.39,87.39,0,0,1,1.08,13.71v41s-28.1,12-32.65,12S653.07,1142.39,653.07,1142.39Z"/><path class="cls-1" d="M652.29,1288.35l-16.86-23.95a36.11,36.11,0,0,1-5.83-28.08c3.55-17.22,8.91-43,9.47-44.71.31-.94.63-6.43.9-12.94a36.19,36.19,0,0,1,24.59-32.8l14.05-4.74,99.16,24a37.53,37.53,0,0,1,20.09,12.54l4.73,5.71a16.06,16.06,0,0,1,3.69,10.26v8.09l7.07,4.32a16.83,16.83,0,0,1,8,14.34l.74,12.54,7.56,2.63a21.23,21.23,0,0,1,7.94,18.28h0A32.32,32.32,0,0,1,825,1277l-11,8.34a61.68,61.68,0,0,1-32,12.3l-92.5,8A41.16,41.16,0,0,1,652.29,1288.35Z"/><path class="cls-5" d="M498.47,1055.92a8.76,8.76,0,0,1-6-10.83l15.24-53a8.74,8.74,0,0,1,10.82-6,8.77,8.77,0,0,1,6,10.83l-4.85,16.84-1.56,5.42-8.83,30.7A8.76,8.76,0,0,1,498.47,1055.92Z"/><path class="cls-5" d="M553.41,1008.37a21.22,21.22,0,0,1-20.26,13.45,25.13,25.13,0,0,1-8.67-1.87,29.07,29.07,0,0,1-8.6-5.51,41.19,41.19,0,0,1-4.89-5.31,14.79,14.79,0,0,1-2.17-3.9,15.34,15.34,0,0,1-.85-3.49c-.48-3.84-.57-9.65,1.87-15a19,19,0,0,1,4.67-6.34s16.28-12.62,34,4.58a21.42,21.42,0,0,1,4.91,23.34Z"/><path class="cls-5" d="M497.22,1082.71a7.74,7.74,0,1,1-7.74-7.74A7.75,7.75,0,0,1,497.22,1082.71Z"/><circle class="cls-5" cx="412.32" cy="966.35" r="7.74"/><path class="cls-2" d="M950.3,801.16c-20.17-76.54-42.61-88.25-42.84-88.36l2.11-4.54c1,.46,24.59,12,45.56,91.63Z"/><path class="cls-2" d="M1507.12,862.26l-4.91-.94a345.7,345.7,0,0,1,17.12-56.55c16.17-40.38,36.48-67.62,60.36-81l2.44,4.37C1527.42,758.73,1507.32,861.23,1507.12,862.26Z"/><path class="cls-5" d="M1458.55,1147.18s50.31,46.33,107.71,120.62a2.7,2.7,0,0,0,4.59-2.77l-95.48-210.32Z"/><path class="cls-5" d="M795.11,1208.19a50.19,50.19,0,0,1-5.17-.35,42.64,42.64,0,0,0-4.35-.3l-.1-5a39.47,39.47,0,0,1,5,.33c5.27.55,8.87.69,10.75-2.17,2.38-3.61,3.94-13-7.16-22.58-6.75-5.84-15.64-8.92-24.16-11.58l-2.87-.9c-20.58-6.42-41.86-13.05-62.95-17.23-9.74-1.93-21-3.86-31.38-2.44-2.42.33-4.93.76-6.73,2l-2.8-4.14c2.7-1.82,6-2.39,8.85-2.78,11.15-1.53,22.9.48,33,2.49,21.36,4.22,42.76,10.9,63.46,17.36l2.88.9c9,2.81,18.46,6.1,25.94,12.57,8.35,7.22,14.44,19.41,8.07,29.11C802.85,1207.31,799,1208.19,795.11,1208.19Z"/><rect class="cls-5" x="1222.11" y="1241.65" width="27.86" height="7.09"/><rect class="cls-5" x="1274.84" y="1241.65" width="27.86" height="7.09"/><path class="cls-5" d="M685.83,1306a93.81,93.81,0,0,1-13.56-.7c-17.85-3-31.09-28.18-31.65-29.25l-11.19-20.32a36.28,36.28,0,0,1-3.74-24.89l2.75-13.23,4.89,1-2.75,13.23a31.3,31.3,0,0,0,3.23,21.46L645,1273.72c.16.29,12.68,24.09,28.07,26.67,16.32,2.74,94.71-4.15,95.5-4.22l22.68-1.64a33.32,33.32,0,0,0,19.72-8.36l13.66-12.1,3.32,3.74-13.66,12.09a38.39,38.39,0,0,1-22.68,9.62L769,1301.16C766.35,1301.39,713.64,1306,685.83,1306Z"/><path class="cls-5" d="M772.79,1280.78h-.13l-56.77-3.35.29-5,56.65,3.34,52.89-2.31c1.19-.62,5.44-3.28,7.15-10.46l4.87,1.16c-2.61,10.89-10.18,14-10.51,14.1l-.38.16Z"/><path class="cls-5" d="M840.13,1253.85l-5,0,0-2.2A14.95,14.95,0,0,0,823,1236.82l-2-.4a15.25,15.25,0,0,0-4.05-.21l-26.82,2.23-.41-5,26.82-2.23a20,20,0,0,1,5.4.28l2.05.4a19.94,19.94,0,0,1,16.19,19.73Z"/><path class="cls-5" d="M704.64,1114.17l-5-.08c.41-25.89-5.15-38.52-9.89-44.56-4.91-6.26-9.78-6.74-10-6.76l.33-5C681.13,1057.85,705.49,1059.93,704.64,1114.17Z"/><path class="cls-5" d="M636.67,1192.3c-6.13-21.28,9.2-36.39,9.85-37l3.48,3.6-1.74-1.8,1.74,1.8c-.57.55-13.81,13.7-8.53,32Z"/><rect class="cls-5" x="734.56" y="1185.81" width="5" height="61.13" transform="translate(-519.68 1882.29) rotate(-86.7)"/><path class="cls-5" d="M1293.59,1218.49c-22.13-18.26-25.85-40.31-25.08-55.59a78.9,78.9,0,0,1,7-29l4.47,2.25a75.2,75.2,0,0,0-6.53,27.16c-1,20.48,6.84,37.74,23.27,51.29Z"/><rect class="cls-5" x="1368.53" y="1015.9" width="5" height="93.42" transform="translate(-359.02 937.01) rotate(-33.62)"/><polygon class="cls-5" points="843.14 874.58 632.68 1079.22 528.83 874.58 843.14 874.58"/><circle class="cls-1" cx="702.25" cy="831.58" r="13.62"/><path class="cls-1" d="M673.81,819.94l-6.48-2.66A37.73,37.73,0,0,1,737,816.9l-6.45,2.72a30.73,30.73,0,0,0-56.74.32Z"/><path class="cls-1" d="M751.27,808.37a54.51,54.51,0,0,0-49-31,53.92,53.92,0,0,0-48.67,30.28l-6.28-3.1a60.89,60.89,0,0,1,55-34.18,61.55,61.55,0,0,1,55.35,35Z"/><path class="cls-5" d="M1793.3,590.65a257.66,257.66,0,0,0,28.92,49.1c1.14,1.52,3.75,0,2.59-1.52a257.58,257.58,0,0,1-28.92-49.09c-.79-1.76-3.37-.24-2.59,1.51Z"/><circle class="cls-5" cx="1134.34" cy="1023.71" r="7.82"/><rect class="cls-1" x="2044.1" y="726.58" width="45.4" height="15.99"/><path class="cls-1" d="M2089.82,742.88h-46V726.26h46Zm-45.4-.64h44.76V726.9h-44.76Z"/><rect class="cls-1" x="2101.01" y="726.58" width="45.4" height="15.99"/><path class="cls-5" d="M1360.28,1289.64l-1-4.9c.65-.14,66.09-14.12,113.9-80.71l4.06,2.91a222.14,222.14,0,0,1-77,67.21C1377.5,1286.07,1361,1289.5,1360.28,1289.64Z"/><path class="cls-1" d="M1318.7,1035.42l-5-.05c1.75-159.7,42.21-364.23,42.62-366.28l4.9,1C1360.82,672.11,1320.44,876.2,1318.7,1035.42Z"/><rect class="cls-1" x="436.13" y="611.31" width="61.04" height="5" transform="translate(-140.86 138.99) rotate(-14.75)"/><path class="cls-5" d="M1570.33,1266.1l-3-4c1.11-.83,27.56-20.32,57.25-12.25l-1.31,4.83C1595.91,1247.25,1570.58,1265.92,1570.33,1266.1Z"/><path class="cls-5" d="M1604.16,1278.54c-16.63-13.18-35.8-9.7-36-9.66l-.94-4.91a52.78,52.78,0,0,1,40,10.65Z"/><path class="cls-1" d="M1607.19,201l-1.65-2.5c.4-.27,40.52-26.11,100.33-10.6l-.75,2.9C1646.66,175.6,1607.58,200.7,1607.19,201Z"/><rect class="cls-1" x="2000.73" y="968.17" width="10" height="81.56" transform="translate(309.02 2479.36) rotate(-67.62)"/><path class="cls-1" d="M1388,1229.58c-13.29,9.3-22.27,13-22.27,13-24.12,3.63-42.6-2.81-56.53-13Z"/><path class="cls-3" d="M1359.79,1287.19,1340.4,1243s68.91-25.21,118.15-95.79l32.37,32.29S1460.78,1252.25,1359.79,1287.19Z"/><path class="cls-5" d="M1541.09,1540.77c-37.41-27.43-93.65-81.08-149.12-180.86-33.13-59.61-50.52-108.17-50.69-108.65l4.71-1.68c.17.48,17.45,48.72,50.4,108,30.36,54.61,80.63,130,147.66,179.18Z"/><polygon class="cls-1" points="1188.75 1177.47 1034.51 873.51 586.56 873.51 586.56 868.51 1037.58 868.51 1193.21 1175.21 1188.75 1177.47"/><path class="cls-1" d="M543.82,996.65l-4.59,12.42a3.19,3.19,0,0,0,3,4.3h0a3.18,3.18,0,0,0,3-2l4.68-12.13a3.2,3.2,0,0,0-.27-2.84l-.13-.21a3.2,3.2,0,0,0-5.69.51Z"/><path class="cls-5" d="M409.26,940.42a8.77,8.77,0,0,0,7.57-9.79l-7-54.67a8.75,8.75,0,0,0-17.35,2.23l2.22,17.38.72,5.59,4.05,31.69A8.74,8.74,0,0,0,409.26,940.42Z"/><path class="cls-5" d="M362.21,885.05a21.21,21.21,0,0,0,18,16.38,24.8,24.8,0,0,0,8.85-.52,29.15,29.15,0,0,0,9.34-4.13,41.84,41.84,0,0,0,5.64-4.51,14.83,14.83,0,0,0,2.74-3.52,15.48,15.48,0,0,0,1.38-3.33c1.05-3.72,2-9.44.42-15a18.94,18.94,0,0,0-3.65-7s-14.17-15-34.28-.66a21.42,21.42,0,0,0-8.42,22.32Z"/><path class="cls-1" d="M374.61,874.93l2.65,13a3.2,3.2,0,0,1-3.62,3.8h0a3.19,3.19,0,0,1-2.64-2.47l-2.77-12.71a3.2,3.2,0,0,1,.7-2.77l.16-.18a3.19,3.19,0,0,1,5.54,1.37Z"/></svg>